<svg class="" height="100%" version="1.1" viewBox="0 0 36 36" width="100%">
<use class="ytp-svg-shadow" xmlns:xlink="http://www.w3.org/1999/xlink" xlink:href="#ytp-svg-35"></use>
<path class="ytp-svg-fill"  id="XMLID_29_" d="M274.3,260c48,45.6,95.4,90.6,143.3,136.1c-47.6,45.2-95,90.3-143.3,136.1
	C274.3,441.2,274.3,351.3,274.3,260z"/>
<path class="ytp-svg-fill"  id="XMLID_28_" d="M245.5,396.1c-47.7,45.3-95,90.3-143,135.9c0-90.8,0-180.7,0-271.7C150.5,305.8,197.9,350.8,245.5,396.1z"/>
<path class="ytp-svg-fill"  id="XMLID_27_" d="M446.5,260.1c23.7,0,47.2,0,70.9,0c0,90.7,0,181.1,0,271.9c-23.6,0-47.1,0-70.9,0
	C446.5,441.6,446.5,351.2,446.5,260.1z"/>
</svg>
